# Blender v2.79 (sub 0) OBJ File: 'Chassis.blend'
# www.blender.org
o Plane.001
v 0.138299 0.074394 0.138299
v 0.138299 0.074394 -0.138299
v 0.138299 0.077350 0.138299
v 0.138299 0.077350 -0.138299
v 0.103808 0.003783 0.137094
v 0.103808 0.074394 0.087094
v 0.103808 0.074394 0.137094
v 0.103808 0.003783 0.087094
v 0.007444 0.074210 -0.133327
v 0.007444 0.074210 -0.118440
v 0.007444 0.014335 -0.133327
v 0.007444 0.014335 -0.118440
v -0.138299 0.074394 0.138299
v -0.138299 0.074394 -0.138299
v -0.138299 0.077350 0.138299
v -0.138299 0.077350 -0.138299
v -0.103808 0.003783 0.137094
v -0.103808 0.074394 0.087094
v -0.103808 0.074394 0.137094
v -0.103808 0.003783 0.087094
v -0.007444 0.074210 -0.133327
v -0.007444 0.074210 -0.118440
v -0.007444 0.014335 -0.133327
v -0.007444 0.014335 -0.118440
vt 1.000000 1.000000
vt 0.992213 0.462516
vt 1.000000 0.462516
vt 0.992213 1.000000
vt 0.992213 1.000000
vt 0.000000 0.000000
vt 0.000000 0.000000
vt 0.000000 0.000000
vt 0.000000 0.000000
vt 0.000000 0.000000
vt 0.000000 0.000000
vt 0.000000 0.000000
vt 0.992213 0.462516
vt 1.000000 1.000000
vt 1.000000 0.462516
vt 0.000000 0.000000
vt 0.000000 0.000000
vt 0.000000 0.000000
vt 0.000000 0.000000
vt 0.000000 0.000000
vt 0.000000 0.000000
vt 0.000000 0.000000
vt 0.000000 0.000000
vt 0.000000 0.000000
vn 1.0000 0.0000 0.0000
vn 0.0000 1.0000 0.0000
vn 0.0000 -1.0000 0.0000
vn -1.0000 0.0000 0.0000
vn 0.0000 0.0000 -1.0000
vn 0.0000 0.0000 1.0000
s off
f 2/1/1 3/2/1 1/3/1
f 16/4/2 3/2/2 4/5/2
f 24/6/3 11/7/3 12/8/3
f 9/9/1 12/8/1 11/7/1
f 6/10/1 5/11/1 8/12/1
f 15/13/4 14/14/4 13/15/4
f 1/3/3 14/14/3 2/1/3
f 23/16/5 9/9/5 11/7/5
f 24/6/6 10/17/6 22/18/6
f 24/6/4 21/19/4 23/16/4
f 7/20/6 17/21/6 5/11/6
f 17/21/4 18/22/4 20/23/4
f 5/11/3 20/23/3 8/12/3
f 2/1/1 4/5/1 3/2/1
f 16/4/2 15/13/2 3/2/2
f 9/9/1 10/17/1 12/8/1
f 6/10/1 7/20/1 5/11/1
f 15/13/4 16/4/4 14/14/4
f 1/3/3 13/15/3 14/14/3
f 24/6/4 22/18/4 21/19/4
f 17/21/4 19/24/4 18/22/4
f 8/12/5 18/22/5 6/10/5
f 24/6/3 23/16/3 11/7/3
f 23/16/5 21/19/5 9/9/5
f 24/6/6 12/8/6 10/17/6
f 7/20/6 19/24/6 17/21/6
f 5/11/3 17/21/3 20/23/3
f 8/12/5 20/23/5 18/22/5
