# Blender v2.79 (sub 0) OBJ File: 'Chassis.blend'
# www.blender.org
o Roue_Roue_Plane.001
v -0.121075 3.000000 -0.000004
v 0.121083 3.000000 -0.000004
v 0.121083 2.942357 -0.585274
v -0.121075 2.942357 -0.585274
v -0.121075 2.494408 -1.666714
v 0.121083 2.494408 -1.666714
v 0.121083 2.121318 -2.121325
v -0.121075 2.121318 -2.121325
v -0.121075 2.121323 2.121318
v 0.121083 2.121323 2.121318
v 0.121083 2.494411 1.666709
v -0.121075 2.494412 1.666709
v 0.121083 1.666709 -2.494412
v -0.121075 1.666709 -2.494412
v -0.121075 1.148046 -2.771642
v 0.121083 1.148046 -2.771642
v 0.121083 0.585266 -2.942357
v -0.121075 0.585266 -2.942357
v 0.121083 2.771640 1.148048
v -0.121075 2.771640 1.148048
v 0.121083 2.771639 -1.148054
v -0.121075 2.771639 -1.148054
v 0.121083 2.942357 0.585268
v -0.121075 2.942359 0.585268
v -0.121075 -2.771637 -1.148053
v -0.121075 -2.942353 -0.585273
v -0.121075 -3.000000 -0.000003
v -0.121075 -2.942357 0.585267
v -0.121075 -2.771640 1.148047
v -0.121075 -2.494407 1.666709
v -0.121075 -2.121319 2.121320
v -0.121075 -1.666712 2.494408
v -0.121075 -1.148050 2.771637
v -0.121075 -0.585270 2.942353
v -0.121075 0.000000 2.999997
v -0.121075 0.585273 2.942353
v -0.121075 1.148053 2.771637
v -0.121075 1.666712 2.494408
v -0.121075 0.000001 -3.000003
v -0.121075 -0.585271 -2.942357
v -0.121075 -1.148051 -2.771640
v -0.121075 -1.666711 -2.494410
v -0.121075 -2.121319 -2.121322
v -0.121075 -2.494406 -1.666710
v 0.121083 1.666712 2.494408
v 0.121083 1.148053 2.771637
v 0.121083 0.585273 2.942353
v 0.121083 0.000000 2.999997
v 0.121083 -0.585270 2.942353
v 0.121083 -1.148050 2.771637
v 0.121083 -1.666712 2.494408
v 0.121083 -2.121319 2.121320
v 0.121083 -2.494407 1.666709
v 0.121083 -1.148051 -2.771640
v 0.121083 -1.666711 -2.494410
v 0.121083 -2.121319 -2.121322
v 0.121083 -0.585271 -2.942357
v 0.121083 -2.771640 -1.148053
v 0.121083 -2.942357 -0.585273
v 0.121083 -2.494406 -1.666710
v 0.121083 -3.000000 -0.000003
v 0.121083 -2.942357 0.585267
v 0.121083 0.000001 -3.000003
v 0.121083 -2.771640 1.148047
vt 0.520278 0.753696
vt 0.500000 0.809129
vt 0.500000 0.753696
vt 0.520278 0.914711
vt 0.500000 0.960803
vt 0.500000 0.914711
vt 0.500000 0.562825
vt 0.520278 0.602022
vt 0.500000 0.602022
vt 0.520278 0.960803
vt 0.500000 1.000000
vt 0.479723 0.875513
vt 0.500000 0.824300
vt 0.500000 0.875513
vt 0.520278 0.648114
vt 0.500000 0.648114
vt 0.520278 0.809129
vt 0.500000 0.863498
vt 0.520278 0.699327
vt 0.500000 0.699327
vt 0.971547 0.148114
vt 0.990393 0.363498
vt 0.677078 0.552010
vt 0.520278 0.863498
vt 0.000000 0.602023
vt 0.020277 0.562825
vt 0.020278 0.602023
vt 0.000000 0.648114
vt 0.020278 0.648114
vt 0.000000 0.699328
vt 0.020278 0.699328
vt 0.000000 0.753696
vt 0.020278 0.753696
vt 0.000000 0.809129
vt 0.020278 0.809129
vt 0.000000 0.863498
vt 0.020278 0.863498
vt 0.000000 0.914712
vt 0.020278 0.914712
vt 0.000000 0.960803
vt 0.020278 0.960803
vt 0.520278 0.608916
vt 0.540555 0.562825
vt 0.540555 0.608916
vt 0.479722 0.660130
vt 0.500000 0.608916
vt 0.500000 0.660130
vt 0.479722 0.608916
vt 0.500000 0.562825
vt 0.479722 0.714498
vt 0.500000 0.714498
vt 0.520278 0.875514
vt 0.540555 0.824300
vt 0.540555 0.875514
vt 0.520278 0.960803
vt 0.540555 0.921605
vt 0.540555 0.960803
vt 0.520278 0.824300
vt 0.540555 0.769932
vt 0.520278 0.769932
vt 0.540555 0.714499
vt 0.479722 0.769932
vt 0.500000 0.769932
vt 0.520278 0.714499
vt 0.540555 0.660131
vt 0.500000 0.253695
vt 0.444188 0.460802
vt 0.090635 0.500000
vt 0.520278 0.921605
vt 0.479723 0.824300
vt 0.520278 0.660131
vt 0.479723 0.921605
vt 0.500000 0.921605
vt 0.520278 0.562825
vt 0.520278 1.000000
vt 0.631581 0.530797
vt 0.590635 0.500000
vt 0.555813 0.460803
vt 0.528453 0.414712
vt 0.509607 0.363498
vt 0.500000 0.309130
vt 0.500000 0.253696
vt 0.509607 0.199328
vt 0.528453 0.148114
vt 0.555812 0.102023
vt 0.590634 0.062826
vt 0.631580 0.032028
vt 0.677077 0.010815
vt 0.725377 0.000000
vt 0.774623 0.000000
vt 0.822922 0.010814
vt 0.868419 0.032028
vt 0.909366 0.062825
vt 0.944188 0.102023
vt 0.990393 0.199327
vt 1.000000 0.253696
vt 1.000000 0.309129
vt 0.971547 0.414712
vt 0.944188 0.460803
vt 0.909366 0.500000
vt 0.868420 0.530797
vt 0.822923 0.552011
vt 0.774623 0.562825
vt 0.725378 0.562825
vt 0.000000 0.562825
vt 0.520278 0.562825
vt 0.479722 0.562825
vt 0.055813 0.460803
vt 0.028453 0.414712
vt 0.009608 0.363498
vt 0.000000 0.309130
vt 0.000000 0.253696
vt 0.009607 0.199328
vt 0.028453 0.148114
vt 0.055812 0.102023
vt 0.090634 0.062826
vt 0.225377 0.000000
vt 0.131580 0.032028
vt 0.177077 0.010815
vt 0.274622 0.000000
vt 0.322922 0.010814
vt 0.368419 0.032028
vt 0.409366 0.062825
vt 0.444188 0.102022
vt 0.471547 0.148113
vt 0.490393 0.199327
vt 0.500000 0.309129
vt 0.490393 0.363497
vt 0.471547 0.414711
vt 0.409366 0.500000
vt 0.368420 0.530797
vt 0.322923 0.552011
vt 0.274623 0.562825
vt 0.225377 0.562825
vt 0.177078 0.552011
vt 0.131581 0.530797
vn 0.0000 0.9952 -0.0980
vn 0.0000 0.7730 -0.6344
vn 0.0000 0.7730 0.6344
vn 0.0000 0.6344 -0.7730
vn 0.0000 0.2903 -0.9569
vn 0.0000 0.8819 0.4714
vn 0.0000 0.9569 -0.2903
vn 0.0000 0.9569 0.2903
vn -1.0000 0.0000 0.0000
vn 0.0000 0.9952 0.0980
vn 0.0000 0.8819 -0.4714
vn 0.0000 0.6344 0.7730
vn 0.0000 0.4714 0.8819
vn 0.0000 0.2903 0.9569
vn 0.0000 0.0980 0.9952
vn 0.0000 -0.0980 0.9952
vn 0.0000 -0.2903 0.9569
vn 0.0000 -0.4714 0.8819
vn 0.0000 -0.6344 0.7730
vn 0.0000 -0.7730 0.6344
vn 0.0000 -0.4714 -0.8819
vn 0.0000 -0.6344 -0.7730
vn 0.0000 -0.2903 -0.9569
vn -0.0000 -0.9569 -0.2903
vn 0.0000 -0.7730 -0.6344
vn -0.0000 -0.9952 -0.0980
vn 0.0000 -0.9952 0.0980
vn 0.0000 -0.0980 -0.9952
vn 0.0000 -0.9569 0.2903
vn 1.0000 0.0000 0.0000
vn -0.0000 -0.8819 -0.4714
vn 0.0000 0.0980 -0.9952
vn 0.0000 -0.8819 0.4714
vn 0.0000 0.4714 -0.8819
s 1
f 2/1/1 4/2/1 1/3/1
f 6/4/2 8/5/2 5/6/2
f 9/7/3 11/8/3 12/9/3
f 7/10/4 14/11/4 8/5/4
f 16/12/5 18/13/5 15/14/5
f 12/9/6 19/15/6 20/16/6
f 3/17/7 22/18/7 4/2/7
f 20/16/8 23/19/8 24/20/8
f 4/21/9 14/22/9 44/23/9
f 24/20/10 2/1/10 1/3/10
f 21/24/11 5/6/11 22/18/11
f 45/25/12 9/26/12 38/27/12
f 46/28/13 38/27/13 37/29/13
f 47/30/14 37/29/14 36/31/14
f 48/32/15 36/31/15 35/33/15
f 49/34/16 35/33/16 34/35/16
f 50/36/17 34/35/17 33/37/17
f 51/38/18 33/37/18 32/39/18
f 52/40/19 32/39/19 31/41/19
f 53/42/20 31/43/20 30/44/20
f 54/45/21 42/46/21 41/47/21
f 55/48/22 43/49/22 42/46/22
f 57/50/23 41/47/23 40/51/23
f 58/52/24 26/53/24 25/54/24
f 56/55/25 44/56/25 43/57/25
f 59/58/26 27/59/26 26/53/26
f 61/60/27 28/61/27 27/59/27
f 63/62/28 40/51/28 39/63/28
f 62/64/29 29/65/29 28/61/29
f 47/66/30 51/67/30 60/68/30
f 60/69/31 25/54/31 44/56/31
f 17/70/32 39/63/32 18/13/32
f 64/71/33 30/44/33 29/65/33
f 13/72/34 15/14/34 14/73/34
f 2/1/1 3/17/1 4/2/1
f 6/4/2 7/10/2 8/5/2
f 9/7/3 10/74/3 11/8/3
f 7/10/4 13/75/4 14/11/4
f 16/12/5 17/70/5 18/13/5
f 12/9/6 11/8/6 19/15/6
f 3/17/7 21/24/7 22/18/7
f 20/16/8 19/15/8 23/19/8
f 44/23/9 25/76/9 26/77/9
f 26/77/9 27/78/9 28/79/9
f 28/79/9 29/80/9 30/81/9
f 30/81/9 31/82/9 32/83/9
f 32/83/9 33/84/9 34/85/9
f 34/85/9 35/86/9 32/83/9
f 36/87/9 37/88/9 38/89/9
f 38/89/9 9/90/9 36/87/9
f 12/91/9 20/92/9 4/21/9
f 24/93/9 1/94/9 4/21/9
f 4/21/9 22/95/9 5/96/9
f 5/96/9 8/97/9 4/21/9
f 14/22/9 15/98/9 18/99/9
f 18/99/9 39/100/9 40/101/9
f 40/101/9 41/102/9 42/103/9
f 42/103/9 43/104/9 44/23/9
f 44/23/9 26/77/9 28/79/9
f 28/79/9 30/81/9 44/23/9
f 32/83/9 35/86/9 36/87/9
f 36/87/9 9/90/9 12/91/9
f 20/92/9 24/93/9 4/21/9
f 4/21/9 8/97/9 14/22/9
f 14/22/9 18/99/9 44/23/9
f 40/101/9 42/103/9 44/23/9
f 44/23/9 30/81/9 32/83/9
f 32/83/9 36/87/9 44/23/9
f 12/91/9 4/21/9 44/23/9
f 18/99/9 40/101/9 44/23/9
f 44/23/9 36/87/9 12/91/9
f 24/20/10 23/19/10 2/1/10
f 21/24/11 6/4/11 5/6/11
f 45/25/12 10/105/12 9/26/12
f 46/28/13 45/25/13 38/27/13
f 47/30/14 46/28/14 37/29/14
f 48/32/15 47/30/15 36/31/15
f 49/34/16 48/32/16 35/33/16
f 50/36/17 49/34/17 34/35/17
f 51/38/18 50/36/18 33/37/18
f 52/40/19 51/38/19 32/39/19
f 53/42/20 52/106/20 31/43/20
f 54/45/21 55/48/21 42/46/21
f 55/48/22 56/107/22 43/49/22
f 57/50/23 54/45/23 41/47/23
f 58/52/24 59/58/24 26/53/24
f 56/55/25 60/69/25 44/56/25
f 59/58/26 61/60/26 27/59/26
f 61/60/27 62/64/27 28/61/27
f 63/62/28 57/50/28 40/51/28
f 62/64/29 64/71/29 29/65/29
f 60/68/30 56/108/30 55/109/30
f 55/109/30 54/110/30 57/111/30
f 57/111/30 63/112/30 17/113/30
f 17/113/30 16/114/30 13/115/30
f 13/115/30 7/116/30 3/117/30
f 6/118/30 21/119/30 3/117/30
f 3/117/30 2/120/30 23/121/30
f 23/121/30 19/122/30 11/123/30
f 11/123/30 10/124/30 47/66/30
f 45/125/30 46/126/30 47/66/30
f 47/66/30 48/127/30 51/67/30
f 49/128/30 50/129/30 51/67/30
f 51/67/30 52/130/30 53/131/30
f 53/131/30 64/132/30 62/133/30
f 62/133/30 61/134/30 60/68/30
f 59/135/30 58/136/30 60/68/30
f 60/68/30 55/109/30 57/111/30
f 57/111/30 17/113/30 60/68/30
f 7/116/30 6/118/30 3/117/30
f 3/117/30 23/121/30 13/115/30
f 10/124/30 45/125/30 47/66/30
f 48/127/30 49/128/30 51/67/30
f 51/67/30 53/131/30 60/68/30
f 61/134/30 59/135/30 60/68/30
f 60/68/30 17/113/30 13/115/30
f 13/115/30 23/121/30 11/123/30
f 11/123/30 47/66/30 60/68/30
f 53/131/30 62/133/30 60/68/30
f 60/68/30 13/115/30 11/123/30
f 60/69/31 58/52/31 25/54/31
f 17/70/32 63/62/32 39/63/32
f 64/71/33 53/42/33 30/44/33
f 13/72/34 16/12/34 15/14/34
